<?xml version="1.0" encoding="UTF-8"?>
<svg version="1.1" xmlns="http://www.w3.org/2000/svg" width="48" height="48">
<path d="M0 0 C2.93423195 1.79646854 4.47205355 2.9441071 6 6 C6.53118252 10.91996928 6.75105553 14.77327597 4.125 19.0625 C0.41086737 22.44891505 -2.57913678 22.37813256 -7.45703125 22.37109375 C-11.44472233 21.78917262 -13.1323195 19.72779364 -16 17 C-16.99 17.33 -17.98 17.66 -19 18 C-26.69966067 18.63470176 -32.74731339 18.83162147 -39 14 C-40.1898306 11.6203388 -40.13349966 10.08514265 -40.125 7.4375 C-40.12886719 6.22900391 -40.12886719 6.22900391 -40.1328125 4.99609375 C-40 3 -40 3 -39 2 C-37.10780066 1.93690157 -35.21329423 1.94071988 -33.3203125 1.97265625 C-32.16402344 1.98490234 -31.00773437 1.99714844 -29.81640625 2.00976562 C-27.36322057 2.04481113 -24.91008855 2.08384828 -22.45703125 2.12695312 C-21.29816406 2.13791016 -20.13929687 2.14886719 -18.9453125 2.16015625 C-17.34453857 2.18541382 -17.34453857 2.18541382 -15.71142578 2.21118164 C-9.92641699 1.76061144 -6.42643888 -0.86095832 0 0 Z M-6 4 C-6 5.98 -6 7.96 -6 10 C-7.98 10 -9.96 10 -12 10 C-12 10.66 -12 11.32 -12 12 C-10.02 12 -8.04 12 -6 12 C-6 13.98 -6 15.96 -6 18 C-5.34 18 -4.68 18 -4 18 C-4 16.02 -4 14.04 -4 12 C-2.02 12 -0.04 12 2 12 C2 11.34 2 10.68 2 10 C0.02 10 -1.96 10 -4 10 C-4 8.02 -4 6.04 -4 4 C-4.66 4 -5.32 4 -6 4 Z M-26 5 C-26 5.66 -26 6.32 -26 7 C-25.34 7 -24.68 7 -24 7 C-24 6.34 -24 5.68 -24 5 C-24.66 5 -25.32 5 -26 5 Z M-17 6 C-17 9.3 -17 12.6 -17 16 C-16.67 16 -16.34 16 -16 16 C-16 12.7 -16 9.4 -16 6 C-16.33 6 -16.66 6 -17 6 Z M-26 9 C-26.33 10.65 -26.66 12.3 -27 14 C-26.01 14.495 -26.01 14.495 -25 15 C-24.34 14.67 -23.68 14.34 -23 14 C-23.33 12.35 -23.66 10.7 -24 9 C-24.66 9 -25.32 9 -26 9 Z " fill="#000000" transform="translate(40,24)"/>
<path d="M0 0 C3.125 1.875 3.125 1.875 5 5 C5.98876625 10.02622846 5.7769173 13.70513784 3.125 18.125 C-1.29486216 20.7769173 -4.97377154 20.98876625 -10 20 C-13.125 18.125 -13.125 18.125 -15 15 C-15.98876625 9.97377154 -15.7769173 6.29486216 -13.125 1.875 C-8.70513784 -0.7769173 -5.02622846 -0.98876625 0 0 Z " fill="#000000" transform="translate(20,2)"/>
</svg>
