<svg width="50" height="50" viewBox="0 0 50 50" fill="none" xmlns="http://www.w3.org/2000/svg">
<path d="M32.0626 30.3333C28.5626 28.5417 24.0209 27.0833 18.7501 27.0833C13.4792 27.0833 8.93755 28.5417 5.43755 30.3333C4.42101 30.8569 3.56943 31.6519 2.97735 32.6302C2.38526 33.6084 2.07582 34.7316 2.08339 35.875V41.6667H35.4167V35.875C35.4167 33.5417 34.1459 31.3958 32.0626 30.3333ZM18.7501 25C23.3542 25 27.0834 21.2708 27.0834 16.6667C27.0834 12.0625 23.3542 8.33334 18.7501 8.33334C14.1459 8.33334 10.4167 12.0625 10.4167 16.6667C10.4167 21.2708 14.1459 25 18.7501 25ZM41.6667 18.75V12.5H37.5001V18.75H31.2501V22.9167H37.5001V29.1667H41.6667V22.9167H47.9167V18.75H41.6667Z" fill="black"/>
</svg>
