<svg width="35" height="49" viewBox="0 0 35 49" fill="none" xmlns="http://www.w3.org/2000/svg">
<path d="M34.1493 11.7649L25.2778 20.6188V45.604C25.2778 46.5338 24.9436 47.3323 24.2752 47.9994C23.6068 48.6665 22.8067 49 21.875 49C20.9433 49 20.1432 48.6665 19.4748 47.9994C18.8064 47.3323 18.4722 46.5338 18.4722 45.604V33.9604H16.5278V45.604C16.5278 46.5338 16.1936 47.3323 15.5252 47.9994C14.8568 48.6665 14.0567 49 13.125 49C12.1933 49 11.3932 48.6665 10.7248 47.9994C10.0564 47.3323 9.72222 46.5338 9.72222 45.604V20.6188L0.850694 11.7649C0.283565 11.1988 0 10.5116 0 9.70297C0 8.89439 0.283565 8.2071 0.850694 7.64109C1.43808 7.07508 2.1318 6.79208 2.93186 6.79208C3.73192 6.79208 4.41551 7.07508 4.98264 7.64109L11.9097 14.5545H23.0903L30.0174 7.64109C30.5845 7.07508 31.2731 6.79208 32.0833 6.79208C32.8935 6.79208 33.5822 7.07508 34.1493 7.64109C34.7164 8.22731 35 8.91966 35 9.71813C35 10.5166 34.7164 11.1988 34.1493 11.7649ZM24.3056 6.79208C24.3056 8.67203 23.6422 10.274 22.3155 11.5981C20.9889 12.9221 19.3837 13.5842 17.5 13.5842C15.6163 13.5842 14.0111 12.9221 12.6845 11.5981C11.3578 10.274 10.6944 8.67203 10.6944 6.79208C10.6944 4.91213 11.3578 3.31013 12.6845 1.98608C14.0111 0.662026 15.6163 0 17.5 0C19.3837 0 20.9889 0.662026 22.3155 1.98608C23.6422 3.31013 24.3056 4.91213 24.3056 6.79208Z" fill="black"/>
</svg>
