<svg width="45" height="45" viewBox="0 0 45 45" fill="none" xmlns="http://www.w3.org/2000/svg">
<path d="M22.4788 8.39814C11.8433 8.39814 3.22021 14.1314 3.22021 21.2034C3.22021 25.2492 6.051 28.8535 10.4582 31.1991C9.831 33.2803 8.57943 35.5824 6.16068 37.62C6.16068 37.62 11.8082 37.2459 15.7963 33.2002C16.0255 33.2564 16.2632 33.2986 16.4952 33.3492C16.2694 32.6963 16.1521 32.0108 16.1479 31.32C16.1479 26.5486 21.4579 22.8122 28.2416 22.8122C33.1115 22.8122 37.2107 24.7472 39.1401 27.6019C40.7826 25.7175 41.7374 23.5336 41.7374 21.1992C41.7374 14.1286 33.1143 8.39532 22.4788 8.39532V8.39814ZM38.9249 31.3228C38.9249 27.3994 34.1437 24.217 28.2374 24.217C22.3382 24.217 17.5527 27.4008 17.5527 31.3242C17.5527 35.2477 22.3382 38.43 28.2402 38.43C29.5452 38.43 30.7897 38.2669 31.9471 37.98C34.1591 40.2272 37.2908 40.4339 37.2908 40.4339C35.9507 39.3033 35.2574 38.025 34.9087 36.8705C37.3527 35.5697 38.9249 33.5686 38.9249 31.3228Z" fill="#1100FA"/>
</svg>
