<svg width="52" height="52" viewBox="0 0 52 52" fill="none" xmlns="http://www.w3.org/2000/svg">
<path d="M28.1668 4.33334C29.7718 4.33072 31.321 4.92201 32.5161 5.99336C33.7112 7.0647 34.4677 8.54034 34.6399 10.1361C34.812 11.7318 34.3877 13.3349 33.4486 14.6365C32.5095 15.9381 31.1221 16.8462 29.5534 17.186L29.1829 17.2553L32.2943 22.2322L36.0296 20.7372C36.5434 20.5298 37.1171 20.5271 37.6328 20.7296C38.1485 20.9322 38.567 21.3246 38.8023 21.8262C39.0376 22.3279 39.0717 22.9006 38.8978 23.4266C38.7238 23.9527 38.3549 24.3921 37.8669 24.6545L37.6373 24.7628L33.9041 26.2557C33.0192 26.6097 32.0422 26.6621 31.1245 26.4048C30.2067 26.1475 29.3994 25.5947 28.8276 24.8322L28.6196 24.5288L28.2664 23.9655L26.9534 29.2175C26.8398 29.6745 26.6525 30.1099 26.3988 30.5067L26.2038 30.7883L29.7853 33.449C30.6395 34.0838 31.2303 35.0109 31.4449 36.0533L31.5078 36.4477L32.2726 43.3333H32.5001C33.0523 43.334 33.5835 43.5454 33.9851 43.9245C34.3866 44.3036 34.6283 44.8217 34.6606 45.373C34.693 45.9243 34.5136 46.4672 34.1592 46.8906C33.8047 47.3141 33.302 47.5863 32.7536 47.6515L32.5001 47.6667H30.5284C29.9862 47.6668 29.4601 47.482 29.0371 47.1429C28.614 46.8037 28.3192 46.3304 28.2014 45.8012L28.1581 45.5477L27.2004 36.9265L20.3754 31.8565C20.254 31.7673 20.1421 31.6656 20.0418 31.5532C19.4397 31.0714 18.9772 30.4377 18.7018 29.7174C18.4264 28.9972 18.3482 28.2165 18.4753 27.456L18.5468 27.1158L20.2671 20.2323L16.8654 21.2507L15.0563 26.6847C14.8825 27.2104 14.514 27.6497 14.0265 27.9123C13.539 28.1749 12.9695 28.2409 12.4348 28.0967C11.9002 27.9525 11.4411 27.6091 11.1517 27.137C10.8624 26.6648 10.7648 26.0998 10.8789 25.558L10.9439 25.3153L12.7553 19.8813C12.9565 19.2784 13.2879 18.7271 13.726 18.2665C14.1641 17.806 14.6981 17.4474 15.2903 17.2163L15.6218 17.1015L23.0686 14.8677C22.3103 13.9098 21.8374 12.7576 21.704 11.5432C21.5705 10.3288 21.7821 9.10145 22.3142 8.00178C22.8464 6.90211 23.6778 5.97468 24.7129 5.32584C25.748 4.677 26.9451 4.33302 28.1668 4.33334ZM20.8001 32.9333C21.2598 33.2781 21.5637 33.7914 21.645 34.3603C21.7263 34.9291 21.5782 35.507 21.2334 35.9667L18.5988 39.481C18.1003 40.1455 17.3663 40.594 16.5475 40.7342C15.7287 40.8744 14.8873 40.6958 14.1961 40.235L10.0144 37.4465C9.58161 37.7938 9.032 37.9619 8.47894 37.9159C7.92588 37.8699 7.41154 37.6135 7.04198 37.1995C6.67242 36.7855 6.47581 36.2454 6.4927 35.6907C6.5096 35.136 6.7387 34.6089 7.13277 34.2182L8.20527 33.1478C8.56285 32.7895 9.03359 32.5663 9.5373 32.5161C10.041 32.4659 10.5465 32.5919 10.9678 32.8727L15.7474 36.0598L17.7668 33.3667C17.9375 33.139 18.1514 32.9473 18.3962 32.8023C18.641 32.6573 18.912 32.562 19.1937 32.5218C19.4754 32.4815 19.7622 32.4972 20.0378 32.5678C20.3135 32.6384 20.5725 32.7626 20.8001 32.9333Z" fill="#FF0000"/>
</svg>
