<svg width="24" height="24" viewBox="0 0 24 24" fill="none" xmlns="http://www.w3.org/2000/svg">
<path d="M22.5151 0.240013H18.6101C18.5158 0.239091 18.4235 0.266539 18.345 0.31879C18.2665 0.371041 18.2056 0.44568 18.1701 0.533013C18.1322 0.62064 18.1212 0.71759 18.1387 0.811467C18.1561 0.905344 18.2012 0.991881 18.2681 1.06001L19.1761 1.96801C19.2761 2.06401 19.2761 2.22301 19.1761 2.31901L17.1551 4.37901C17.1113 4.41156 17.0582 4.42914 17.0036 4.42914C16.949 4.42914 16.8959 4.41156 16.8521 4.37901C15.5835 3.57291 14.0754 3.22985 12.583 3.40789C11.0905 3.58592 9.70544 4.27412 8.66209 5.35601C4.66209 4.70801 1.03109 7.78701 1.01709 11.838C1.01906 13.2405 1.47322 14.605 2.31215 15.7289C3.15108 16.8528 4.33006 17.6763 5.67409 18.077C5.77809 18.107 5.84909 18.203 5.84909 18.311V19.082C5.84909 19.1467 5.82338 19.2088 5.77762 19.2545C5.73187 19.3003 5.6698 19.326 5.60509 19.326H5.17509C5.00269 19.2996 4.82661 19.3107 4.65891 19.3586C4.49122 19.4066 4.33587 19.4902 4.20351 19.6038C4.07116 19.7174 3.96493 19.8583 3.8921 20.0168C3.81927 20.1752 3.78156 20.3476 3.78156 20.522C3.78156 20.6964 3.81927 20.8688 3.8921 21.0273C3.96493 21.1858 4.07116 21.3266 4.20351 21.4402C4.33587 21.5538 4.49122 21.6374 4.65891 21.6854C4.82661 21.7333 5.00269 21.7445 5.17509 21.718H5.65509C5.78909 21.718 5.89809 21.828 5.89809 21.962V22.441C5.88451 22.6076 5.9056 22.7753 5.96005 22.9334C6.01449 23.0914 6.1011 23.2365 6.21441 23.3594C6.32773 23.4824 6.46528 23.5805 6.61841 23.6476C6.77153 23.7147 6.93691 23.7493 7.10409 23.7493C7.27127 23.7493 7.43665 23.7147 7.58977 23.6476C7.7429 23.5805 7.88045 23.4824 7.99377 23.3594C8.10708 23.2365 8.19369 23.0914 8.24813 22.9334C8.30258 22.7753 8.32367 22.6076 8.31009 22.441V21.962C8.30893 21.905 8.3278 21.8493 8.36343 21.8047C8.39906 21.7601 8.44918 21.7295 8.50509 21.718H8.99309C9.29483 21.6919 9.57581 21.5536 9.78053 21.3304C9.98525 21.1072 10.0988 20.8154 10.0988 20.5125C10.0988 20.2097 9.98525 19.9178 9.78053 19.6946C9.57581 19.4714 9.29483 19.3331 8.99309 19.307H8.50509C8.44117 19.3045 8.38053 19.278 8.33529 19.2328C8.29006 19.1876 8.26356 19.1269 8.26109 19.063V18.506C8.26307 18.4478 8.28584 18.3921 8.32527 18.3492C8.36471 18.3063 8.41821 18.2789 8.47609 18.272C9.87409 18.0616 11.1676 17.4078 12.1661 16.407C16.1601 17.005 19.7641 13.943 19.8201 9.90501C19.8351 8.66476 19.4966 7.44588 18.8441 6.39101C18.8107 6.34947 18.7926 6.29779 18.7926 6.24451C18.7926 6.19124 18.8107 6.13956 18.8441 6.09801L20.9041 4.03801C20.9265 4.01357 20.9536 3.99402 20.9839 3.98059C21.0142 3.96717 21.047 3.96016 21.0801 3.96001C21.1461 3.96301 21.2091 3.99001 21.2551 4.03801L22.1531 4.93601C22.2213 5.00304 22.3077 5.04855 22.4016 5.06689C22.4954 5.08522 22.5926 5.07557 22.681 5.03914C22.7695 5.0027 22.8452 4.94109 22.8989 4.86195C22.9526 4.78281 22.9819 4.68964 22.9831 4.59401V0.690013C22.9754 0.570202 22.923 0.457635 22.8364 0.374517C22.7498 0.291399 22.6351 0.243766 22.5151 0.241013M13.7281 13.997C14.0248 13.154 14.1458 12.2592 14.0837 11.3677C14.0216 10.4762 13.7777 9.60676 13.3671 8.81301C13.2944 8.67012 13.1941 8.54307 13.072 8.43921C12.9499 8.33534 12.8084 8.25674 12.6557 8.20794C12.503 8.15915 12.3421 8.14113 12.1824 8.15494C12.0227 8.16874 11.8673 8.21409 11.7252 8.28837C11.5832 8.36264 11.4573 8.46436 11.3548 8.58763C11.2523 8.71091 11.1753 8.85329 11.1282 9.00653C11.0811 9.15977 11.0649 9.32083 11.0805 9.48038C11.0961 9.63992 11.1432 9.79479 11.2191 9.93601C11.5391 10.536 11.6991 11.208 11.6881 11.888C11.6841 15.052 8.25709 17.026 5.51809 15.441C2.77909 13.856 2.78409 9.90101 5.52609 8.32101C6.04984 8.01949 6.63377 7.83748 7.23609 7.78801C6.97714 8.46513 6.83512 9.18132 6.81609 9.90601C6.81501 11.1919 7.19539 12.4493 7.90909 13.519C8.09477 13.7658 8.36781 13.9323 8.67227 13.9843C8.97673 14.0363 9.28955 13.97 9.54664 13.7988C9.80374 13.6276 9.98563 13.3646 10.0551 13.0636C10.1245 12.7626 10.0762 12.4465 9.92009 12.18C8.16609 9.54701 9.92009 6.00201 13.0771 5.79901C16.2341 5.59601 18.4271 8.88701 17.0251 11.723C16.7116 12.3569 16.2398 12.8991 15.6554 13.2973C15.071 13.6955 14.3937 13.9361 13.6891 13.996L13.7281 13.997Z" fill="black"/>
</svg>
