<svg width="40" height="40" viewBox="0 0 40 40" fill="none" xmlns="http://www.w3.org/2000/svg">
<path d="M36.6667 13.6033V13.725C36.6667 15.1583 36.6667 15.8767 36.3217 16.4633C35.9767 17.05 35.3484 17.3983 34.095 18.0967L32.7734 18.83C33.6834 15.75 33.9884 12.44 34.1 9.61L34.1167 9.24167L34.12 9.155C35.205 9.53167 35.815 9.81333 36.195 10.34C36.6667 10.995 36.6667 11.865 36.6667 13.6033ZM3.33337 13.6033V13.725C3.33337 15.1583 3.33337 15.8767 3.67837 16.4633C4.02337 17.05 4.65171 17.3983 5.90504 18.0967L7.22837 18.83C6.31671 15.75 6.01171 12.44 5.90004 9.61L5.88337 9.24167L5.88171 9.155C4.79504 9.53167 4.18504 9.81333 3.80504 10.34C3.33337 10.995 3.33337 11.8667 3.33337 13.6033Z" fill="black"/>
<path fill-rule="evenodd" clip-rule="evenodd" d="M27.295 3.91166C24.8836 3.51665 22.4435 3.3232 20 3.33332C17.0283 3.33332 14.5783 3.59499 12.705 3.91166C10.8066 4.23166 9.8583 4.39166 9.06497 5.36832C8.2733 6.34499 8.31497 7.39999 8.3983 9.50999C8.68664 16.7567 10.25 25.81 18.75 26.61V32.5H16.3666C15.9815 32.5002 15.6083 32.6338 15.3105 32.8781C15.0128 33.1224 14.8088 33.4623 14.7333 33.84L14.4166 35.4167H9.99997C9.66845 35.4167 9.35051 35.5484 9.11609 35.7828C8.88166 36.0172 8.74997 36.3351 8.74997 36.6667C8.74997 36.9982 8.88166 37.3161 9.11609 37.5505C9.35051 37.785 9.66845 37.9167 9.99997 37.9167H30C30.3315 37.9167 30.6494 37.785 30.8839 37.5505C31.1183 37.3161 31.25 36.9982 31.25 36.6667C31.25 36.3351 31.1183 36.0172 30.8839 35.7828C30.6494 35.5484 30.3315 35.4167 30 35.4167H25.5833L25.2666 33.84C25.1911 33.4623 24.9872 33.1224 24.6894 32.8781C24.3916 32.6338 24.0185 32.5002 23.6333 32.5H21.25V26.61C29.75 25.81 31.315 16.7583 31.6016 9.50999C31.685 7.39999 31.7283 6.34332 30.935 5.36832C30.1416 4.39166 29.1933 4.23166 27.295 3.91166Z" fill="black"/>
</svg>
