<svg width="45" height="45" viewBox="0 0 45 45" fill="none" xmlns="http://www.w3.org/2000/svg">
<path d="M6.18563 32.9925C6.99563 35.49 9.4575 37.0837 12.0844 37.0837H12.1875C12.4285 38.26 13.0682 39.3169 13.9984 40.076C14.9287 40.8351 16.0925 41.2498 17.2931 41.25C18.15 41.25 18.9506 41.0344 19.6594 40.6631C19.9554 40.5013 20.2018 40.2618 20.3719 39.9704C20.542 39.679 20.6295 39.3468 20.625 39.0094V5.67562C20.6277 5.24632 20.4831 4.82908 20.2152 4.49362C19.9473 4.15816 19.5724 3.92478 19.1531 3.83249C18.2125 3.64922 17.2376 3.7817 16.38 4.20937C14.985 4.87687 14.1675 6.36749 14.1675 7.91812V8.02124C13.1235 7.80817 12.0393 7.92038 11.0611 8.34275C10.0829 8.76512 9.25774 9.47732 8.69694 10.3833C8.13615 11.2893 7.86669 12.3455 7.9249 13.4094C7.98311 14.4733 8.3662 15.4937 9.0225 16.3331C7.55314 16.5645 6.21466 17.3129 5.24805 18.4434C4.28144 19.574 3.75021 21.0125 3.75 22.5C3.75 24.7087 4.89562 26.6456 6.62437 27.7725C5.81813 29.2181 5.55375 31.0462 6.18563 32.9925ZM35.9775 16.3331C36.6338 15.4937 37.0169 14.4733 37.0751 13.4094C37.1333 12.3455 36.8638 11.2893 36.3031 10.3833C35.7423 9.47732 34.9171 8.76512 33.9389 8.34275C32.9607 7.92038 31.8765 7.80817 30.8325 8.02124V7.91812C30.8325 6.36937 30.0131 4.87687 28.6181 4.20937C27.761 3.78212 26.7869 3.64964 25.8469 3.83249C25.4276 3.92478 25.0527 4.15816 24.7848 4.49362C24.5169 4.82908 24.3723 5.24632 24.375 5.67562V39.0075C24.375 39.6919 24.735 40.3425 25.3425 40.6612C26.0513 41.0344 26.85 41.25 27.7069 41.25C28.9078 41.2497 30.0718 40.8348 31.0021 40.0753C31.9324 39.3158 32.5719 38.2584 32.8125 37.0819H32.9175C35.5425 37.0819 38.0062 35.4881 38.8162 32.9906C39.4481 31.0444 39.1838 29.2162 38.3775 27.7706C39.2581 27.2016 39.9823 26.4213 40.4841 25.5006C40.9858 24.58 41.2491 23.5485 41.25 22.5C41.2498 21.0125 40.7186 19.574 39.7519 18.4434C38.7853 17.3129 37.4469 16.5645 35.9775 16.3331Z" fill="#CC00CF"/>
</svg>
