<svg width="40" height="32" viewBox="0 0 40 32" fill="none" xmlns="http://www.w3.org/2000/svg">
<g clip-path="url(#clip0_118_9)">
<path d="M21.95 0.300056C22.15 0.175056 22.3625 0.093806 22.575 0.043806C22.8688 -0.018694 23.175 -0.012444 23.4562 0.050056C23.9375 0.162556 24.3813 0.456306 24.6688 0.900056L32.1625 12.1376C32.7125 12.9563 33 13.9251 33 14.9126V19.5063C33 19.9376 33.275 20.3188 33.6813 20.4563L38.6312 22.1063C39.45 22.3751 40 23.1376 40 24.0001V30.0001C40 30.6188 39.7125 31.2063 39.2188 31.5876C38.725 31.9688 38.0875 32.0938 37.4875 31.9313L26.9375 29.1188C23.4375 28.1876 21 25.0126 21 21.3876V14.0001C21 12.8938 21.8937 12.0001 23 12.0001C24.1063 12.0001 25 12.8938 25 14.0001V19.0001C25 19.5501 25.45 20.0001 26 20.0001C26.55 20.0001 27 19.5501 27 19.0001V13.6938C27 13.2563 26.8875 12.8313 26.6688 12.4563L21.2687 3.00631C21.1625 2.81881 21.0875 2.62506 21.0438 2.42506C20.9813 2.13131 20.9812 1.82506 21.05 1.54381C21.1687 1.04381 21.475 0.593806 21.9438 0.300056H21.95ZM18.05 0.300056C18.5187 0.587556 18.825 1.04381 18.9438 1.54381C19.0125 1.83131 19.0188 2.13131 18.95 2.42506C18.9063 2.62506 18.8313 2.81881 18.725 3.00631L13.3313 12.4563C13.1125 12.8313 13 13.2626 13 13.6938V19.0001C13 19.5501 13.45 20.0001 14 20.0001C14.55 20.0001 15 19.5501 15 19.0001V14.0001C15 12.8938 15.8937 12.0001 17 12.0001C18.1063 12.0001 19 12.8938 19 14.0001V21.3876C19 25.0126 16.5625 28.1813 13.0625 29.1188L2.51875 31.9313C1.91875 32.0938 1.275 31.9626 0.7875 31.5876C0.3 31.2126 0 30.6251 0 30.0001V24.0001C0 23.1376 0.55 22.3751 1.36875 22.1001L6.31875 20.4501C6.725 20.3126 7 19.9313 7 19.5001V14.9063C7 13.9188 7.29375 12.9563 7.8375 12.1313L15.325 0.906306C15.6125 0.462556 16.0563 0.168806 16.5375 0.056306C16.825 -0.012444 17.125 -0.018694 17.4188 0.050056C17.6375 0.100056 17.85 0.181306 18.0438 0.306306L18.05 0.300056Z" fill="#0ACC00"/>
</g>
<defs>
<clipPath id="clip0_118_9">
<rect width="40" height="32" fill="white"/>
</clipPath>
</defs>
</svg>
