<svg width="45" height="45" viewBox="0 0 45 45" fill="none" xmlns="http://www.w3.org/2000/svg">
<path d="M17.8088 10.8619C20.4713 7.29188 24.4744 6.24938 28.1569 7.2525C32.1319 8.33438 35.6269 11.7488 36.7875 16.5038C36.8475 16.7475 36.8994 16.9913 36.9431 17.235C35.2677 16.638 33.4453 16.592 31.7419 17.1038C29.3288 15.3188 26.34 15.0187 23.6831 15.9975C20.355 17.2256 17.7563 20.34 17.1544 24.2588C16.3856 29.2763 19.4419 33.7838 23.7638 37.6163L24.4913 38.2463C23.9044 38.2875 23.3081 38.1956 22.7381 38.0737C22.4452 38.0107 22.1539 37.9407 21.8644 37.8638L20.8575 37.5825C11.9063 35.0644 5.91376 31.125 4.19438 25.2375C2.82188 20.5388 4.14188 15.8344 7.04438 12.9094C9.73313 10.2 13.7194 9.10125 17.8088 10.8619ZM20.8613 24.8269C21.6638 19.5919 27.7181 17.0119 30.8269 21.5044C30.8567 21.5461 30.9017 21.5745 30.9523 21.5832C31.0028 21.592 31.0548 21.5805 31.0969 21.5513C35.5538 18.3938 40.3594 22.8881 39.3225 28.0819C38.7225 31.0944 35.9288 33.5944 30.9413 35.5819L30.1256 35.9006L29.6325 36.1031C29.2069 36.27 28.7569 36.4031 28.35 36.3319C27.945 36.2606 27.5681 35.9794 27.225 35.6794L26.6438 35.1544C22.3063 31.4219 20.3788 27.9794 20.8613 24.8269Z" fill="#FF0084"/>
</svg>
